<svg id="Layer_1" data-name="Layer 1" xmlns="http://www.w3.org/2000/svg" viewBox="0 0 198.43 198.43"><defs><style>.cls-1{fill:#473691;}.cls-2{fill:#6dc38f;}.cls-3{fill:#fff;}</style></defs><title>Artboard 38 copy 2</title><rect class="cls-1" x="36.56" y="37.14" width="126.2" height="126.2" rx="24.27" ry="24.27"/><path class="cls-2" d="M68,52.35,67.81,185l32.67-31.55,32.57,31.66.23-132.6L68,52.35Z"/><path class="cls-3" d="M99.74,103.87A18,18,0,0,1,88.39,100a13.34,13.34,0,0,1,0-21.23,18,18,0,0,1,11.34-3.88h0a18,18,0,0,1,11.34,3.9,13.79,13.79,0,0,1,5.25,10.63l-10.5,0a3.45,3.45,0,0,0-1.39-2.48,7.57,7.57,0,0,0-4.71-1.53h0A7.55,7.55,0,0,0,95,86.87a2.9,2.9,0,0,0,0,5,7.53,7.53,0,0,0,4.72,1.54Z"/><path class="cls-3" d="M99.74,122.47h0a18,18,0,0,1-11.35-3.9,13.79,13.79,0,0,1-5.25-10.63l10.5,0A3.45,3.45,0,0,0,95,110.44,7.58,7.58,0,0,0,99.73,112h0a7.54,7.54,0,0,0,4.7-1.52,2.9,2.9,0,0,0,0-5A7.5,7.5,0,0,0,99.74,104V93.45a18,18,0,0,1,11.34,3.91,13.34,13.34,0,0,1,0,21.23A18,18,0,0,1,99.74,122.47Z"/><polygon class="cls-1" points="65.55 63.09 65.5 49.62 78.41 49.6 78.47 63.07 65.55 63.09"/></svg>