<svg id="Layer_1" data-name="Layer 1" xmlns="http://www.w3.org/2000/svg" xmlns:xlink="http://www.w3.org/1999/xlink" viewBox="0 0 198.43 198.43"><defs><style>.cls-1{fill:none;}.cls-2{fill:#473691;}.cls-3{fill:#fff;}.cls-4{clip-path:url(#clip-path);}</style><clipPath id="clip-path"><rect class="cls-1" x="447.97" y="-416.99" width="818.89" height="615.42"/></clipPath></defs><title>Artboard 38 copy 4</title><rect class="cls-2" x="36.56" y="37.14" width="126.2" height="126.2" rx="24.27" ry="24.27"/><polyline class="cls-3" points="125.45 80.3 125.45 112.12 117.44 112.12 117.44 60.47 87.69 60.47 87.69 52.46 125.45 52.46 125.45 70.01"/><path class="cls-3" d="M99.49,91.38a13.64,13.64,0,0,1-8.65-3,10.17,10.17,0,0,1,0-16.18,13.65,13.65,0,0,1,8.63-3h0a13.66,13.66,0,0,1,8.65,3,10.49,10.49,0,0,1,4,8.09h-8a2.66,2.66,0,0,0-1.06-1.9,5.77,5.77,0,0,0-3.6-1.17h0a5.75,5.75,0,0,0-3.59,1.17,2.59,2.59,0,0,0-1.07,1.89,2.64,2.64,0,0,0,1.06,1.89,5.77,5.77,0,0,0,3.6,1.17Z"/><path class="cls-3" d="M99.49,105.57h0a13.72,13.72,0,0,1-8.65-3,10.52,10.52,0,0,1-4-8.1h8a2.59,2.59,0,0,0,1.06,1.89,5.77,5.77,0,0,0,3.59,1.17h0a5.76,5.76,0,0,0,3.59-1.16,2.62,2.62,0,0,0,1.06-1.89,2.59,2.59,0,0,0-1.06-1.89,5.77,5.77,0,0,0-3.59-1.17v-8a13.67,13.67,0,0,1,8.64,3,10.18,10.18,0,0,1,0,16.19A13.7,13.7,0,0,1,99.49,105.57Z"/><polygon class="cls-3" points="74.15 60.47 74.11 52.48 82.12 52.46 82.15 60.45 74.15 60.47"/><rect class="cls-3" x="74.12" y="66.24" width="8" height="63.22"/><polygon class="cls-3" points="125.45 152.35 100.08 126.16 74.12 152.13 74.12 96.99 82.12 96.99 82.12 132.81 100.17 114.75 117.44 132.58 117.44 96.99 125.45 96.99 125.45 152.35"/></svg>