<svg id="Layer_1" data-name="Layer 1" xmlns="http://www.w3.org/2000/svg" viewBox="0 0 198.43 198.43"><defs><style>.cls-1{fill:#6dc38f;}.cls-2{fill:#473691;}.cls-3{fill:#fff;}</style></defs><title>Artboard 38 copy 3</title><rect class="cls-1" x="35.06" y="37.14" width="126.2" height="126.2" rx="24.27" ry="24.27"/><path class="cls-2" d="M66.54,52.35,66.31,185,99,153.4l32.57,31.66.23-132.6-65.24-.11Z"/><path class="cls-3" d="M98.24,103.87A18,18,0,0,1,86.89,100a13.34,13.34,0,0,1,0-21.23,18,18,0,0,1,11.34-3.88h0a18,18,0,0,1,11.34,3.9,13.79,13.79,0,0,1,5.25,10.63l-10.5,0A3.45,3.45,0,0,0,103,86.88a7.57,7.57,0,0,0-4.71-1.53h0a7.55,7.55,0,0,0-4.71,1.52,2.9,2.9,0,0,0,0,5,7.53,7.53,0,0,0,4.72,1.54Z"/><path class="cls-3" d="M98.24,122.47h0a18,18,0,0,1-11.35-3.9,13.79,13.79,0,0,1-5.25-10.63l10.5,0a3.45,3.45,0,0,0,1.39,2.48A7.58,7.58,0,0,0,98.23,112h0a7.54,7.54,0,0,0,4.7-1.52,2.9,2.9,0,0,0,0-5A7.5,7.5,0,0,0,98.24,104V93.45a18,18,0,0,1,11.34,3.91,13.34,13.34,0,0,1,0,21.23A18,18,0,0,1,98.24,122.47Z"/><polygon class="cls-1" points="64.05 63.09 63.99 49.62 76.91 49.6 76.97 63.07 64.05 63.09"/></svg>