<svg id="Layer_1" data-name="Layer 1" xmlns="http://www.w3.org/2000/svg" viewBox="0 0 198.43 198.43"><defs><style>.cls-1{fill:#fff;}.cls-2{fill:#473691;}</style></defs><title>Artboard 38 copy</title><rect class="cls-1" x="36.56" y="37.14" width="126.2" height="126.2" rx="24.27" ry="24.27"/><polyline class="cls-2" points="134.2 88.8 134.2 130.54 123.7 130.54 123.7 62.79 84.67 62.79 84.67 52.29 134.2 52.29 134.2 75.31"/><path class="cls-2" d="M100.15,103.34a17.92,17.92,0,0,1-11.34-3.91,13.34,13.34,0,0,1,0-21.23,18,18,0,0,1,11.33-3.88h0a17.92,17.92,0,0,1,11.34,3.91,13.74,13.74,0,0,1,5.25,10.62h-10.5a3.37,3.37,0,0,0-1.39-2.48,7.5,7.5,0,0,0-4.71-1.54h0a7.57,7.57,0,0,0-4.71,1.53,2.9,2.9,0,0,0,0,5,7.5,7.5,0,0,0,4.71,1.54Z"/><path class="cls-2" d="M100.15,121.94h0A17.92,17.92,0,0,1,88.79,118a13.78,13.78,0,0,1-5.25-10.62H94a3.42,3.42,0,0,0,1.39,2.48,7.55,7.55,0,0,0,4.71,1.53h0a7.57,7.57,0,0,0,4.71-1.52,2.91,2.91,0,0,0,0-5,7.55,7.55,0,0,0-4.71-1.53V92.93a17.92,17.92,0,0,1,11.34,3.9,13.34,13.34,0,0,1,0,21.23A18,18,0,0,1,100.15,121.94Z"/><polygon class="cls-2" points="66.92 62.79 66.87 52.31 77.37 52.29 77.42 62.77 66.92 62.79"/><rect class="cls-2" x="66.87" y="76.03" width="10.5" height="77.26"/><polygon class="cls-2" points="134.2 183.31 100.93 148.96 66.87 183.01 66.87 110.69 77.37 110.69 77.37 157.67 101.05 133.99 123.7 157.38 123.7 110.69 134.2 110.69 134.2 183.31"/></svg>