<svg id="Layer_1" data-name="Layer 1" xmlns="http://www.w3.org/2000/svg" xmlns:xlink="http://www.w3.org/1999/xlink" viewBox="0 0 198.43 198.43"><defs><style>.cls-1{fill:none;}.cls-2{fill:#fff;}.cls-3{fill:#473691;}.cls-4{fill:#6dc38f;}.cls-5{clip-path:url(#clip-path);}.cls-6{fill:#f1f2f2;}</style><clipPath id="clip-path"><rect class="cls-1" x="240.66" y="-416.99" width="818.89" height="615.42"/></clipPath></defs><title>Artboard 38 copy 5</title><rect class="cls-2" x="36.11" y="37.14" width="126.2" height="126.2" rx="24.27" ry="24.27"/><polyline class="cls-3" points="125 80.3 125 112.12 117 112.12 117 60.47 87.24 60.47 87.24 52.46 125 52.46 125 70.01"/><path class="cls-3" d="M99,91.38a13.66,13.66,0,0,1-8.65-3,10.17,10.17,0,0,1,0-16.18,13.66,13.66,0,0,1,8.64-3h0a13.62,13.62,0,0,1,8.65,3,10.46,10.46,0,0,1,4,8.09h-8a2.66,2.66,0,0,0-1.06-1.9,5.77,5.77,0,0,0-3.59-1.17h0a5.77,5.77,0,0,0-3.59,1.17,2.2,2.2,0,0,0,0,3.78,5.75,5.75,0,0,0,3.59,1.17Z"/><path class="cls-3" d="M99,105.57h0a13.68,13.68,0,0,1-8.65-3,10.46,10.46,0,0,1-4-8.1h8a2.59,2.59,0,0,0,1.06,1.89A5.77,5.77,0,0,0,99,97.56h0a5.76,5.76,0,0,0,3.59-1.16,2.59,2.59,0,0,0,1.06-1.89,2.56,2.56,0,0,0-1.06-1.89A5.77,5.77,0,0,0,99,91.45v-8a13.72,13.72,0,0,1,8.65,3,10.18,10.18,0,0,1,0,16.19A13.68,13.68,0,0,1,99,105.57Z"/><polygon class="cls-4" points="73.7 60.47 73.67 52.48 81.67 52.46 81.71 60.45 73.7 60.47"/><rect class="cls-3" x="73.67" y="66.24" width="8" height="63.22"/><polygon class="cls-3" points="125 152.35 99.64 126.16 73.67 152.13 73.67 96.99 81.67 96.99 81.67 132.81 99.73 114.75 117 132.58 117 96.99 125 96.99 125 152.35"/><g class="cls-5"><polyline class="cls-6" points="163.04 -5.03 174.36 6.3 163.04 17.63"/><circle class="cls-6" cx="197.21" cy="-5.23" r="8.01"/><polyline class="cls-6" points="128.89 29.19 117.56 17.86 128.89 6.53"/><polyline class="cls-6" points="117.32 40.68 128.65 52.01 117.32 63.34"/><circle class="cls-6" cx="151.5" cy="40.48" r="8.01"/><path class="cls-6" d="M94.65,18.2,81,31.81l11.11.2.16,11.11L106,29.41,94.75,18.11Z"/><polyline class="cls-6" points="69.12 -7.52 80.45 3.81 69.12 15.13"/><circle class="cls-6" cx="103.3" cy="-7.72" r="8.01"/><path class="cls-6" d="M185.73,17.86,172,31.47l11.11.19.16,11.12L197.1,29.07,185.83,17.76Z"/><path class="cls-6" d="M188.22,111.78l-13.69,13.6,11.12.2.15,11.11L199.59,123l-11.27-11.31Z"/><polyline class="cls-6" points="174.26 74.56 162.93 63.23 174.26 51.9"/><polyline class="cls-6" points="162.69 86.05 174.02 97.38 162.69 108.71"/><circle class="cls-6" cx="196.87" cy="85.85" r="8.01"/><path class="cls-6" d="M140,63.57,126.33,77.18l11.11.2.16,11.11,13.79-13.71L140.12,63.47Z"/></g></svg>