<svg id="Layer_1" data-name="Layer 1" xmlns="http://www.w3.org/2000/svg" viewBox="0 0 156.9 92.01"><defs><style>.cls-1{fill:#473691;}</style></defs><title>Artboard 47</title><path class="cls-1" d="M62.29,43.13A14.47,14.47,0,0,1,48.06,28.47a14.24,14.24,0,1,1,28.47,0A14.47,14.47,0,0,1,62.29,43.13Zm0-22.84a8,8,0,0,0-7.75,8.18,7.77,7.77,0,1,0,15.51,0A8,8,0,0,0,62.29,20.29Z"/><path class="cls-1" d="M80.39,42.84V14.52h6.49v3.8A17.43,17.43,0,0,1,98,14.38v6.48a11.09,11.09,0,0,0-11.07,11v11Z"/><path class="cls-1" d="M10.26,31.5c-5.66,0-10.26-4-10.26-9s4.6-8.95,10.26-8.95,10.25,4,10.25,9H14c0-1.17-1.55-2.47-3.77-2.47s-3.78,1.3-3.78,2.47S8,25,10.26,25Z"/><path class="cls-1" d="M44.47,43H38V22.54c0-1.17-1.55-2.47-3.78-2.47s-3.77,1.3-3.77,2.47V43H24V.14h6.48V14.21a11.64,11.64,0,0,1,3.77-.62c5.66,0,10.26,4,10.26,9Z"/><path class="cls-1" d="M156.94,43h-6.49V22.54c0-1.17-1.54-2.47-3.77-2.47s-3.77,1.3-3.77,2.47V43h-6.48V6.48h-24.1V0h30.58V14.21a11.64,11.64,0,0,1,3.77-.62c5.66,0,10.26,4,10.26,9Z"/><path class="cls-1" d="M10.26,43C4.6,43,0,39,0,34H6.48c0,1.18,1.55,2.48,3.78,2.48S14,35.21,14,34s-1.55-2.47-3.77-2.47V25.07c5.65,0,10.25,4,10.25,9S15.91,43,10.26,43Z"/><path class="cls-1" d="M121.88,31.52a11.08,11.08,0,0,1-7-2.41,8.5,8.5,0,0,1-3.24-6.56A8.51,8.51,0,0,1,114.89,16a11.13,11.13,0,0,1,7-2.4h0a11.1,11.1,0,0,1,7,2.42,8.5,8.5,0,0,1,3.24,6.55h-6.48a2.11,2.11,0,0,0-.86-1.53,4.62,4.62,0,0,0-2.91-.95h0A4.67,4.67,0,0,0,119,21a2.11,2.11,0,0,0-.86,1.53,2.11,2.11,0,0,0,.86,1.53,4.68,4.68,0,0,0,2.91.95Z"/><path class="cls-1" d="M121.88,43h0a11.06,11.06,0,0,1-7-2.41A8.44,8.44,0,0,1,111.63,34h6.48a2.11,2.11,0,0,0,.86,1.53,4.68,4.68,0,0,0,2.91,1h0a4.65,4.65,0,0,0,2.91-.94,2.11,2.11,0,0,0,.86-1.53,2.08,2.08,0,0,0-.86-1.53,4.58,4.58,0,0,0-2.91-1V25.09a11.1,11.1,0,0,1,7,2.42,8.24,8.24,0,0,1,0,13.11A11.1,11.1,0,0,1,121.88,43Z"/><polygon class="cls-1" points="101.36 6.48 101.33 0.01 107.82 0 107.84 6.47 101.36 6.48"/><rect class="cls-1" x="101.33" y="14.66" width="6.48" height="28.19"/><rect class="cls-1" x="70.05" y="14.66" width="6.48" height="28.19"/><polygon class="cls-1" points="142.91 92.01 122.37 70.79 101.33 91.83 101.33 47.16 107.82 47.16 107.82 76.17 122.44 61.55 136.43 75.99 136.43 47.16 142.91 47.16 142.91 92.01"/></svg>