<svg id="Layer_1" data-name="Layer 1" xmlns="http://www.w3.org/2000/svg" viewBox="0 0 188.14 110.58"><defs><style>.cls-1{fill:#fff;}</style></defs><title>Artboard 64</title><path class="cls-1" d="M74.66,52A17.34,17.34,0,0,1,57.6,34.43a17.07,17.07,0,1,1,34.12,0A17.34,17.34,0,0,1,74.66,52Zm0-27.36a9.55,9.55,0,0,0-9.29,9.79,9.3,9.3,0,1,0,18.58,0A9.56,9.56,0,0,0,74.66,24.64Z"/><path class="cls-1" d="M96.35,51.65V17.71h7.77v4.56a20.89,20.89,0,0,1,13.27-4.73v7.77a13.29,13.29,0,0,0-13.27,13.23V51.65Z"/><path class="cls-1" d="M12.29,38.07C5.51,38.07,0,33.25,0,27.33S5.51,16.6,12.29,16.6s12.29,4.81,12.29,10.73H16.81c0-1.4-1.86-3-4.52-3s-4.52,1.56-4.52,3,1.86,3,4.52,3Z"/><path class="cls-1" d="M53.3,51.83H45.53V27.33c0-1.4-1.86-3-4.52-3s-4.53,1.56-4.53,3v24.5H28.71V.48h7.77V17.35A13.71,13.71,0,0,1,41,16.6c6.77,0,12.29,4.81,12.29,10.73Z"/><path class="cls-1" d="M188.08,51.83h-7.77V27.33c0-1.4-1.85-3-4.52-3s-4.52,1.56-4.52,3v24.5H163.5V8.08H134.62V.31h36.65v17a13.69,13.69,0,0,1,4.52-.75c6.78,0,12.29,4.81,12.29,10.73Z"/><path class="cls-1" d="M12.29,51.84C5.51,51.84,0,47,0,41.1H7.77c0,1.41,1.86,3,4.52,3s4.52-1.56,4.52-3-1.86-3-4.52-3V30.37c6.78,0,12.29,4.81,12.29,10.73S19.07,51.84,12.29,51.84Z"/><path class="cls-1" d="M146.07,38.09a13.25,13.25,0,0,1-8.39-2.89,10.2,10.2,0,0,1-3.89-7.86,10.21,10.21,0,0,1,3.91-7.85,13.27,13.27,0,0,1,8.38-2.87h0a13.25,13.25,0,0,1,8.39,2.89,10.2,10.2,0,0,1,3.89,7.86h-7.77a2.53,2.53,0,0,0-1-1.83,5.56,5.56,0,0,0-3.49-1.14h0a5.56,5.56,0,0,0-3.48,1.13,2.54,2.54,0,0,0-1,1.83,2.56,2.56,0,0,0,1,1.84,5.61,5.61,0,0,0,3.49,1.13Z"/><path class="cls-1" d="M146.07,51.86h0a13.28,13.28,0,0,1-8.4-2.89,10.19,10.19,0,0,1-3.88-7.86h7.77a2.52,2.52,0,0,0,1,1.84,5.57,5.57,0,0,0,3.49,1.13h0A5.59,5.59,0,0,0,149.56,43a2.53,2.53,0,0,0,1-1.83,2.5,2.5,0,0,0-1-1.83,5.52,5.52,0,0,0-3.49-1.14V30.39a13.28,13.28,0,0,1,8.4,2.89,9.88,9.88,0,0,1,0,15.71A13.3,13.3,0,0,1,146.07,51.86Z"/><polygon class="cls-1" points="121.48 8.08 121.44 0.33 129.21 0.31 129.25 8.07 121.48 8.08"/><rect class="cls-1" x="121.45" y="17.88" width="7.77" height="33.78"/><rect class="cls-1" x="83.95" y="17.88" width="7.77" height="33.78"/><polygon class="cls-1" points="171.27 110.58 146.65 85.16 121.44 110.36 121.44 56.84 129.22 56.84 129.22 91.61 146.74 74.08 163.5 91.39 163.5 56.84 171.27 56.84 171.27 110.58"/></svg>