<svg id="Layer_1" data-name="Layer 1" xmlns="http://www.w3.org/2000/svg" xmlns:xlink="http://www.w3.org/1999/xlink" viewBox="0 0 68.05 71.1"><defs><style>.cls-1{fill:none;}.cls-2{fill:#fff;}.cls-3{fill:#473691;}.cls-4{clip-path:url(#clip-path);}.cls-5{fill:#f1f2f2;}</style><clipPath id="clip-path"><rect class="cls-1" x="104.07" y="-2.06" width="818.89" height="615.42"/></clipPath></defs><title>Artboard 62</title><rect class="cls-2" x="16.06" y="1.5" width="50.52" height="68.1" rx="8.38" ry="8.38"/><path class="cls-3" d="M58.2,71.1H24.45a9.9,9.9,0,0,1-9.89-9.88V9.88A9.9,9.9,0,0,1,24.45,0H58.2a9.9,9.9,0,0,1,9.89,9.88V61.22A9.9,9.9,0,0,1,58.2,71.1ZM24.45,3a6.89,6.89,0,0,0-6.89,6.88V61.22a6.89,6.89,0,0,0,6.89,6.88H58.2a6.89,6.89,0,0,0,6.89-6.88V9.88A6.89,6.89,0,0,0,58.2,3Z"/><path class="cls-3" d="M54.44,71.1H20.68a9.89,9.89,0,0,1-9.88-9.88V9.88A9.89,9.89,0,0,1,20.68,0H54.44a9.89,9.89,0,0,1,9.88,9.88V61.22A9.89,9.89,0,0,1,54.44,71.1ZM20.68,3A6.89,6.89,0,0,0,13.8,9.88V61.22a6.88,6.88,0,0,0,6.88,6.88H54.44a6.89,6.89,0,0,0,6.88-6.88V9.88A6.89,6.89,0,0,0,54.44,3Z"/><rect class="cls-2" x="8.63" y="1.5" width="50.52" height="68.1" rx="8.38" ry="8.38"/><path class="cls-3" d="M50.77,71.1H17a9.9,9.9,0,0,1-9.89-9.88V9.88A9.9,9.9,0,0,1,17,0H50.77a9.9,9.9,0,0,1,9.89,9.88V61.22A9.9,9.9,0,0,1,50.77,71.1ZM17,3a6.89,6.89,0,0,0-6.89,6.88V61.22A6.89,6.89,0,0,0,17,68.1H50.77a6.89,6.89,0,0,0,6.89-6.88V9.88A6.89,6.89,0,0,0,50.77,3Z"/><g class="cls-4"><polyline class="cls-5" points="76.25 70.94 64.92 59.61 76.25 48.29"/><path class="cls-5" d="M42,60,28.32,73.56l11.11.2.16,11.11L53.38,71.16,42.11,59.86Z"/></g></svg>