<svg id="Layer_1" data-name="Layer 1" xmlns="http://www.w3.org/2000/svg" xmlns:xlink="http://www.w3.org/1999/xlink" viewBox="0 0 95.02 99.09"><defs><style>.cls-1{fill:none;}.cls-2{fill:#fff;}.cls-3{fill:#473691;}.cls-4{clip-path:url(#clip-path);}</style><clipPath id="clip-path"><rect class="cls-1" x="221.84" y="-2.06" width="818.89" height="615.42"/></clipPath></defs><title>Artboard 61</title><rect class="cls-2" x="22.24" y="1.5" width="71.28" height="96.09" rx="8.38" ry="8.38"/><path class="cls-3" d="M85.14,99.09H30.62a9.89,9.89,0,0,1-9.88-9.88V9.88A9.89,9.89,0,0,1,30.62,0H85.14A9.89,9.89,0,0,1,95,9.88V89.21A9.89,9.89,0,0,1,85.14,99.09ZM30.62,3a6.89,6.89,0,0,0-6.88,6.88V89.21a6.89,6.89,0,0,0,6.88,6.88H85.14A6.89,6.89,0,0,0,92,89.21V9.88A6.89,6.89,0,0,0,85.14,3Z"/><rect class="cls-2" x="16.92" y="1.5" width="71.28" height="96.09" rx="8.38" ry="8.38"/><path class="cls-3" d="M79.82,99.09H25.3a9.89,9.89,0,0,1-9.88-9.88V9.88A9.89,9.89,0,0,1,25.3,0H79.82A9.89,9.89,0,0,1,89.7,9.88V89.21A9.89,9.89,0,0,1,79.82,99.09ZM25.3,3a6.89,6.89,0,0,0-6.88,6.88V89.21a6.89,6.89,0,0,0,6.88,6.88H79.82a6.89,6.89,0,0,0,6.88-6.88V9.88A6.89,6.89,0,0,0,79.82,3Z"/><rect class="cls-2" x="11.75" y="1.5" width="71.28" height="96.09" rx="8.38" ry="8.38"/><path class="cls-3" d="M74.65,99.09H20.13a9.89,9.89,0,0,1-9.88-9.88V9.88A9.89,9.89,0,0,1,20.13,0H74.65a9.89,9.89,0,0,1,9.88,9.88V89.21A9.89,9.89,0,0,1,74.65,99.09ZM20.13,3a6.89,6.89,0,0,0-6.88,6.88V89.21a6.89,6.89,0,0,0,6.88,6.88H74.65a6.89,6.89,0,0,0,6.88-6.88V9.88A6.89,6.89,0,0,0,74.65,3Z"/></svg>