<svg id="Layer_1" data-name="Layer 1" xmlns="http://www.w3.org/2000/svg" xmlns:xlink="http://www.w3.org/1999/xlink" viewBox="0 0 818.89 615.42"><defs><style>.cls-1{fill:none;}.cls-2{opacity:0.13;}.cls-3{clip-path:url(#clip-path);}.cls-4{fill:#f1f2f2;}.cls-5{clip-path:url(#clip-path-2);}</style><clipPath id="clip-path"><rect class="cls-1" x="855.09" width="818.89" height="615.42"/></clipPath><clipPath id="clip-path-2"><rect class="cls-1" width="818.89" height="615.42"/></clipPath></defs><title>Artboard 36</title><g class="cls-2"><g class="cls-3"><polyline class="cls-4" points="827.26 73.01 815.93 61.68 827.26 50.35"/><polyline class="cls-4" points="815.7 84.5 827.02 95.83 815.7 107.15"/><path class="cls-4" d="M793,62,779.33,75.63l11.12.19.15,11.11,13.79-13.7L793.12,61.92Z"/><polyline class="cls-4" points="829.75 166.92 818.42 155.59 829.75 144.27"/><polyline class="cls-4" points="818.19 178.41 829.52 189.74 818.19 201.07"/><path class="cls-4" d="M795.51,155.94l-13.68,13.6,11.11.2.15,11.11,13.79-13.7-11.27-11.31Z"/><polyline class="cls-4" points="781.55 118.72 770.22 107.39 781.55 96.06"/><polyline class="cls-4" points="769.98 130.21 781.31 141.54 769.98 152.87"/><circle class="cls-4" cx="804.16" cy="130.01" r="8.01"/><path class="cls-4" d="M747.31,107.73l-13.69,13.61,11.11.2.16,11.11,13.79-13.71-11.27-11.31Z"/><path class="cls-4" d="M798,249.86l-13.68,13.6,11.11.2.16,11.11,13.78-13.71-11.27-11.3Z"/><polyline class="cls-4" points="784.04 212.64 772.71 201.31 784.04 189.98"/><polyline class="cls-4" points="772.47 224.13 783.8 235.46 772.47 246.78"/><circle class="cls-4" cx="806.65" cy="223.93" r="8.01"/><path class="cls-4" d="M749.8,201.65l-13.69,13.61,11.11.19.16,11.12,13.79-13.71L749.9,201.55Z"/><polyline class="cls-4" points="735.84 164.43 724.51 153.1 735.84 141.78"/><polyline class="cls-4" points="724.27 175.92 735.6 187.25 724.27 198.58"/><circle class="cls-4" cx="758.45" cy="175.72" r="8.01"/><path class="cls-4" d="M701.59,153.45l-13.68,13.6,11.11.2.16,11.11L713,164.65l-11.27-11.3Z"/><path class="cls-4" d="M800.49,343.77l-13.68,13.61,11.11.2.16,11.11L811.86,355l-11.27-11.31Z"/><polyline class="cls-4" points="786.53 306.55 775.2 295.23 786.53 283.9"/><polyline class="cls-4" points="774.97 318.04 786.29 329.37 774.97 340.7"/><circle class="cls-4" cx="809.14" cy="317.84" r="8.01"/><path class="cls-4" d="M752.29,295.57,738.6,309.18l11.11.19.16,11.11,13.79-13.7-11.27-11.31Z"/><polyline class="cls-4" points="738.33 258.35 727 247.02 738.33 235.69"/><polyline class="cls-4" points="726.76 269.84 738.09 281.17 726.76 292.5"/><circle class="cls-4" cx="760.94" cy="269.64" r="8.01"/><path class="cls-4" d="M704.09,247.36,690.4,261l11.11.2.16,11.11,13.78-13.71-11.26-11.31Z"/><polyline class="cls-4" points="690.12 210.15 678.79 198.82 690.12 187.49"/><polyline class="cls-4" points="678.56 221.63 689.88 232.96 678.56 244.29"/><circle class="cls-4" cx="712.74" cy="221.44" r="8.01"/><path class="cls-4" d="M655.88,199.16l-13.69,13.61,11.12.19.15,11.11,13.79-13.7L656,199.06Z"/><polyline class="cls-4" points="789.02 400.47 777.69 389.14 789.02 377.81"/><polyline class="cls-4" points="777.46 411.96 788.78 423.29 777.46 434.62"/><circle class="cls-4" cx="811.64" cy="411.76" r="8.01"/><path class="cls-4" d="M754.78,389.49l-13.69,13.6,11.12.2.15,11.11,13.79-13.71-11.27-11.3Z"/><polyline class="cls-4" points="740.82 352.27 729.49 340.94 740.82 329.61"/><polyline class="cls-4" points="729.25 363.76 740.58 375.09 729.25 386.41"/><circle class="cls-4" cx="763.43" cy="363.56" r="8.01"/><path class="cls-4" d="M706.58,341.28l-13.69,13.61,11.11.19.16,11.12L718,352.49l-11.27-11.31Z"/><polyline class="cls-4" points="692.61 304.06 681.29 292.74 692.61 281.41"/><polyline class="cls-4" points="681.05 315.55 692.38 326.88 681.05 338.21"/><circle class="cls-4" cx="715.23" cy="315.35" r="8.01"/><path class="cls-4" d="M658.37,293.08l-13.68,13.6,11.11.2L656,318l13.78-13.7L658.47,293Z"/><polyline class="cls-4" points="644.41 255.86 633.08 244.53 644.41 233.2"/><polyline class="cls-4" points="632.84 267.35 644.17 278.68 632.84 290"/><circle class="cls-4" cx="667.02" cy="267.15" r="8.01"/><path class="cls-4" d="M610.17,244.87l-13.69,13.61,11.11.2.16,11.11,13.79-13.71-11.27-11.31Z"/><polyline class="cls-4" points="743.31 446.19 731.98 434.86 743.31 423.53"/><polyline class="cls-4" points="731.74 457.68 743.07 469 731.74 480.33"/><circle class="cls-4" cx="765.92" cy="457.48" r="8.01"/><path class="cls-4" d="M709.07,435.2l-13.69,13.61,11.11.19.16,11.11,13.79-13.7L709.17,435.1Z"/><polyline class="cls-4" points="695.11 397.98 683.78 386.65 695.11 375.32"/><polyline class="cls-4" points="683.54 409.47 694.87 420.8 683.54 432.13"/><circle class="cls-4" cx="717.72" cy="409.27" r="8.01"/><path class="cls-4" d="M660.86,387,647.18,400.6l11.11.2.16,11.11,13.78-13.71L661,386.89Z"/><polyline class="cls-4" points="646.9 349.78 635.57 338.45 646.9 327.12"/><polyline class="cls-4" points="635.34 361.27 646.66 372.59 635.34 383.92"/><circle class="cls-4" cx="669.51" cy="361.07" r="8.01"/><path class="cls-4" d="M612.66,338.79,599,352.4l11.11.19.16,11.11L624,350l-11.27-11.31Z"/><polyline class="cls-4" points="598.7 301.57 587.37 290.24 598.7 278.92"/><polyline class="cls-4" points="587.13 313.06 598.46 324.39 587.13 335.72"/><circle class="cls-4" cx="621.31" cy="312.86" r="8.01"/><path class="cls-4" d="M564.46,290.59l-13.69,13.6,11.11.2L562,315.5l13.78-13.71-11.27-11.3Z"/><path class="cls-4" d="M800.15,434.85l-13.69,13.61,11.12.2.15,11.11,13.79-13.71-11.27-11.31Z"/><path class="cls-4" d="M802.64,528.77,789,542.38l11.12.19.15,11.12L814,540l-11.27-11.31Z"/><polyline class="cls-4" points="788.68 491.55 777.35 480.23 788.68 468.9"/><polyline class="cls-4" points="777.11 503.04 788.44 514.37 777.11 525.7"/><circle class="cls-4" cx="811.29" cy="502.84" r="8.01"/><path class="cls-4" d="M754.44,480.57l-13.69,13.6,11.11.2.16,11.11,13.79-13.7-11.27-11.31Z"/></g></g><g class="cls-5"><polyline class="cls-4" points="333.79 0.54 345.12 11.87 333.79 23.2"/><circle class="cls-4" cx="367.97" cy="0.34" r="8.01"/><path class="cls-4" d="M311.11-21.93,297.43-8.33l11.11.2L308.7,3l13.78-13.7L311.21-22Z"/><polyline class="cls-4" points="299.64 34.77 288.31 23.44 299.64 12.11"/><polyline class="cls-4" points="288.08 46.26 299.4 57.59 288.08 68.91"/><circle class="cls-4" cx="322.25" cy="46.06" r="8.01"/><path class="cls-4" d="M265.4,23.78,251.71,37.39l11.12.19L263,48.7,276.77,35,265.5,23.68Z"/><polyline class="cls-4" points="239.87 -1.95 251.2 9.38 239.87 20.71"/><circle class="cls-4" cx="274.05" cy="-2.15" r="8.01"/><path class="cls-4" d="M217.2-24.42l-13.69,13.6,11.11.2L214.78.49l13.79-13.71L217.3-24.52Z"/><polyline class="cls-4" points="253.93 80.48 242.6 69.15 253.93 57.82"/><polyline class="cls-4" points="242.36 91.97 253.69 103.3 242.36 114.63"/><circle class="cls-4" cx="276.54" cy="91.77" r="8.01"/><path class="cls-4" d="M219.69,69.49,206,83.1l11.11.2.16,11.11L231.06,80.7,219.79,69.39Z"/><polyline class="cls-4" points="205.72 32.28 194.4 20.95 205.72 9.62"/><polyline class="cls-4" points="194.16 43.77 205.49 55.09 194.16 66.42"/><circle class="cls-4" cx="228.34" cy="43.57" r="8.01"/><path class="cls-4" d="M171.48,21.29,157.8,34.9l11.11.19.16,11.11,13.78-13.7L171.58,21.19Z"/><polyline class="cls-4" points="145.95 -4.44 157.28 6.89 145.95 18.22"/><circle class="cls-4" cx="180.13" cy="-4.64" r="8.01"/><polyline class="cls-4" points="706.62 7.67 717.95 19 706.62 30.33"/><circle class="cls-4" cx="740.8" cy="7.47" r="8.01"/><path class="cls-4" d="M684-14.8,670.26-1.2l11.11.2.16,11.11,13.79-13.7L684.05-14.9Z"/><polyline class="cls-4" points="672.48 41.9 661.15 30.57 672.48 19.24"/><polyline class="cls-4" points="660.91 53.39 672.24 64.72 660.91 76.04"/><circle class="cls-4" cx="695.09" cy="53.19" r="8.01"/><path class="cls-4" d="M638.24,30.91,624.55,44.52l11.11.19.16,11.12L649.6,42.12,638.33,30.81Z"/><polyline class="cls-4" points="612.71 5.18 624.03 16.51 612.71 27.84"/><circle class="cls-4" cx="646.88" cy="4.98" r="8.01"/><path class="cls-4" d="M590-17.29,576.34-3.69l11.12.2.15,11.11L601.4-6.09l-11.27-11.3Z"/><polyline class="cls-4" points="626.76 87.61 615.43 76.28 626.76 64.95"/><polyline class="cls-4" points="615.2 99.1 626.53 110.43 615.2 121.76"/><circle class="cls-4" cx="649.38" cy="98.9" r="8.01"/><path class="cls-4" d="M592.52,76.62,578.84,90.23l11.11.2.15,11.11,13.79-13.71L592.62,76.52Z"/><polyline class="cls-4" points="578.56 39.41 567.23 28.08 578.56 16.75"/><polyline class="cls-4" points="566.99 50.9 578.32 62.22 566.99 73.55"/><circle class="cls-4" cx="601.17" cy="50.7" r="8.01"/><path class="cls-4" d="M544.32,28.42,530.63,42l11.11.19.16,11.11,13.79-13.7L544.42,28.32Z"/><polyline class="cls-4" points="518.79 2.69 530.12 14.02 518.79 25.35"/><circle class="cls-4" cx="552.97" cy="2.49" r="8.01"/><path class="cls-4" d="M496.11-19.79,482.43-6.18l11.11.2.16,11.11L507.48-8.58l-11.27-11.3Z"/><polyline class="cls-4" points="581.05 133.32 569.72 121.99 581.05 110.67"/><polyline class="cls-4" points="569.48 144.81 580.81 156.14 569.48 167.47"/><circle class="cls-4" cx="603.66" cy="144.61" r="8.01"/><path class="cls-4" d="M546.81,122.34l-13.69,13.6,11.11.2.16,11.11,13.79-13.71-11.27-11.3Z"/><polyline class="cls-4" points="532.85 85.12 521.52 73.79 532.85 62.46"/><polyline class="cls-4" points="521.28 96.61 532.61 107.94 521.28 119.27"/><circle class="cls-4" cx="555.46" cy="96.41" r="8.01"/><path class="cls-4" d="M498.6,74.13,484.92,87.74l11.11.19.16,11.12L510,85.34,498.7,74Z"/><polyline class="cls-4" points="484.64 36.91 473.31 25.59 484.64 14.26"/><polyline class="cls-4" points="473.07 48.4 484.4 59.73 473.07 71.06"/><circle class="cls-4" cx="507.25" cy="48.2" r="8.01"/><path class="cls-4" d="M450.4,25.93l-13.69,13.6,11.11.2L448,50.84l13.79-13.7L450.5,25.83Z"/><polyline class="cls-4" points="424.87 0.2 436.2 11.53 424.87 22.86"/><circle class="cls-4" cx="459.05" r="8.01"/><path class="cls-4" d="M402.2-22.28,388.51-8.67l11.11.2.16,11.11,13.78-13.71L402.3-22.38Z"/><polyline class="cls-4" points="535.34 179.04 524.01 167.71 535.34 156.38"/><polyline class="cls-4" points="523.77 190.53 535.1 201.85 523.77 213.18"/><circle class="cls-4" cx="557.95" cy="190.33" r="8.01"/><path class="cls-4" d="M501.1,168.05l-13.69,13.61,11.11.19.16,11.11,13.78-13.7L501.2,168Z"/><polyline class="cls-4" points="487.13 130.83 475.8 119.5 487.13 108.17"/><polyline class="cls-4" points="475.57 142.32 486.89 153.65 475.57 164.98"/><circle class="cls-4" cx="509.74" cy="142.12" r="8.01"/><path class="cls-4" d="M452.89,119.85l-13.69,13.6,11.12.2.15,11.11,13.79-13.71L453,119.75Z"/><polyline class="cls-4" points="438.93 82.63 427.6 71.3 438.93 59.97"/><polyline class="cls-4" points="427.36 94.12 438.69 105.44 427.36 116.77"/><circle class="cls-4" cx="461.54" cy="93.92" r="8.01"/><path class="cls-4" d="M404.69,71.64,391,85.25l11.11.19.16,11.12,13.79-13.71L404.79,71.54Z"/><polyline class="cls-4" points="390.72 34.42 379.4 23.09 390.72 11.77"/><polyline class="cls-4" points="379.16 45.91 390.49 57.24 379.16 68.57"/><circle class="cls-4" cx="413.34" cy="45.71" r="8.01"/><path class="cls-4" d="M356.48,23.44,342.8,37l11.11.2.16,11.11,13.78-13.71-11.27-11.3Z"/><polyline class="cls-4" points="489.62 224.75 478.3 213.42 489.62 202.09"/><polyline class="cls-4" points="478.06 236.24 489.39 247.57 478.06 258.9"/><circle class="cls-4" cx="512.24" cy="236.04" r="8.01"/><path class="cls-4" d="M455.38,213.76,441.7,227.37l11.11.2.16,11.11L466.75,225l-11.27-11.31Z"/><polyline class="cls-4" points="441.42 176.54 430.09 165.22 441.42 153.89"/><polyline class="cls-4" points="429.85 188.03 441.18 199.36 429.85 210.69"/><circle class="cls-4" cx="464.03" cy="187.83" r="8.01"/><path class="cls-4" d="M407.18,165.56l-13.69,13.61,11.11.19.16,11.11,13.79-13.7-11.27-11.31Z"/><polyline class="cls-4" points="393.21 128.34 381.89 117.01 393.21 105.68"/><polyline class="cls-4" points="381.65 139.83 392.98 151.16 381.65 162.49"/><circle class="cls-4" cx="415.83" cy="139.63" r="8.01"/><path class="cls-4" d="M359,117.35,345.29,131l11.11.2.16,11.11,13.78-13.71-11.27-11.31Z"/><polyline class="cls-4" points="345.01 80.14 333.68 68.81 345.01 57.48"/><polyline class="cls-4" points="333.44 91.63 344.77 102.95 333.44 114.28"/><circle class="cls-4" cx="367.62" cy="91.43" r="8.01"/><path class="cls-4" d="M310.77,69.15,297.08,82.76l11.11.19.16,11.11,13.79-13.7L310.87,69.05Z"/><polyline class="cls-4" points="443.91 270.46 432.58 259.13 443.91 247.81"/><polyline class="cls-4" points="432.35 281.95 443.67 293.28 432.35 304.61"/><circle class="cls-4" cx="466.52" cy="281.75" r="8.01"/><path class="cls-4" d="M409.67,259.48,396,273.08l11.11.2.16,11.11L421,270.68l-11.27-11.3Z"/><polyline class="cls-4" points="395.71 222.26 384.38 210.93 395.71 199.6"/><polyline class="cls-4" points="384.14 233.75 395.47 245.08 384.14 256.4"/><circle class="cls-4" cx="418.32" cy="233.55" r="8.01"/><path class="cls-4" d="M361.47,211.27l-13.69,13.61,11.11.19.16,11.12,13.78-13.71-11.27-11.31Z"/><polyline class="cls-4" points="347.5 174.05 336.17 162.72 347.5 151.4"/><polyline class="cls-4" points="335.94 185.54 347.26 196.87 335.94 208.2"/><circle class="cls-4" cx="370.11" cy="185.34" r="8.01"/><path class="cls-4" d="M313.26,163.07l-13.69,13.6,11.12.2.15,11.11,13.79-13.7L313.36,163Z"/><polyline class="cls-4" points="299.3 125.85 287.97 114.52 299.3 103.19"/><polyline class="cls-4" points="287.73 137.34 299.06 148.67 287.73 160"/><circle class="cls-4" cx="321.91" cy="137.14" r="8.01"/><path class="cls-4" d="M265.06,114.86l-13.69,13.61,11.11.2.16,11.11,13.79-13.71-11.27-11.31Z"/><path class="cls-4" d="M823.23,33.06l-13.68,13.6,11.11.2L820.82,58l13.78-13.7L823.33,33Z"/><polyline class="cls-4" points="797.71 7.33 809.03 18.66 797.71 29.99"/><path class="cls-4" d="M775-15.15,761.34-1.54l11.11.2.16,11.11L786.4-3.94,775.13-15.25Z"/><path class="cls-4" d="M825.73,127,812,140.58l11.11.2.16,11.11,13.78-13.71-11.26-11.3Z"/><polyline class="cls-4" points="811.76 89.76 800.43 78.43 811.76 67.1"/><polyline class="cls-4" points="800.2 101.25 811.52 112.58 800.2 123.9"/><path class="cls-4" d="M777.52,78.77,763.83,92.38l11.12.19.15,11.12L788.89,90,777.62,78.67Z"/><polyline class="cls-4" points="763.56 41.55 752.23 30.22 763.56 18.9"/><polyline class="cls-4" points="751.99 53.04 763.32 64.37 751.99 75.7"/><circle class="cls-4" cx="786.17" cy="52.84" r="8.01"/><path class="cls-4" d="M729.32,30.57l-13.69,13.6,11.11.2.16,11.11,13.79-13.71-11.27-11.3Z"/><path class="cls-4" d="M828.22,220.89,814.53,234.5l11.11.2.16,11.11,13.79-13.71-11.27-11.31Z"/><polyline class="cls-4" points="814.25 183.67 802.93 172.35 814.25 161.02"/><polyline class="cls-4" points="802.69 195.16 814.02 206.49 802.69 217.82"/><path class="cls-4" d="M780,172.69l-13.68,13.6,11.11.2.16,11.11,13.78-13.7-11.27-11.31Z"/><polyline class="cls-4" points="766.05 135.47 754.72 124.14 766.05 112.81"/><polyline class="cls-4" points="754.48 146.96 765.81 158.29 754.48 169.62"/><circle class="cls-4" cx="788.66" cy="146.76" r="8.01"/><path class="cls-4" d="M731.81,124.48l-13.69,13.61,11.11.2.16,11.11,13.79-13.71-11.27-11.31Z"/><polyline class="cls-4" points="717.85 87.27 706.52 75.94 717.85 64.61"/><polyline class="cls-4" points="706.28 98.75 717.61 110.08 706.28 121.41"/><circle class="cls-4" cx="740.46" cy="98.56" r="8.01"/><path class="cls-4" d="M683.6,76.28,669.92,89.89l11.11.19.16,11.11L695,87.49,683.7,76.18Z"/><polyline class="cls-4" points="816.75 277.59 805.42 266.26 816.75 254.94"/><polyline class="cls-4" points="805.18 289.08 816.51 300.41 805.18 311.74"/><path class="cls-4" d="M782.5,266.61l-13.68,13.6,11.11.2.16,11.11,13.78-13.71-11.27-11.3Z"/><polyline class="cls-4" points="768.54 229.39 757.21 218.06 768.54 206.73"/><polyline class="cls-4" points="756.98 240.88 768.3 252.21 756.98 263.53"/><circle class="cls-4" cx="791.15" cy="240.68" r="8.01"/><path class="cls-4" d="M734.3,218.4,720.61,232l11.11.19.16,11.12,13.79-13.71L734.4,218.3Z"/><polyline class="cls-4" points="720.34 181.18 709.01 169.85 720.34 158.53"/><polyline class="cls-4" points="708.77 192.67 720.1 204 708.77 215.33"/><circle class="cls-4" cx="742.95" cy="192.47" r="8.01"/><path class="cls-4" d="M686.1,170.2l-13.69,13.6,11.11.2.16,11.11,13.78-13.7L686.19,170.1Z"/><polyline class="cls-4" points="672.13 132.98 660.8 121.65 672.13 110.32"/><polyline class="cls-4" points="660.57 144.47 671.89 155.8 660.57 167.13"/><circle class="cls-4" cx="694.74" cy="144.27" r="8.01"/><path class="cls-4" d="M637.89,122,624.2,135.6l11.12.2.15,11.11,13.79-13.71L638,121.89Z"/><polyline class="cls-4" points="771.03 323.31 759.7 311.98 771.03 300.65"/><polyline class="cls-4" points="759.47 334.79 770.79 346.12 759.47 357.45"/><circle class="cls-4" cx="793.64" cy="334.6" r="8.01"/><path class="cls-4" d="M736.79,312.32,723.1,325.93l11.12.19.15,11.11,13.79-13.7-11.27-11.31Z"/><polyline class="cls-4" points="722.83 275.1 711.5 263.77 722.83 252.44"/><polyline class="cls-4" points="711.26 286.59 722.59 297.92 711.26 309.25"/><circle class="cls-4" cx="745.44" cy="286.39" r="8.01"/><path class="cls-4" d="M688.59,264.11,674.9,277.72l11.11.2.16,11.11L700,275.32,688.69,264Z"/><polyline class="cls-4" points="674.62 226.9 663.29 215.57 674.62 204.24"/><polyline class="cls-4" points="663.06 238.39 674.39 249.71 663.06 261.04"/><circle class="cls-4" cx="697.24" cy="238.19" r="8.01"/><path class="cls-4" d="M640.38,215.91,626.7,229.52l11.11.19.15,11.11,13.79-13.7-11.27-11.31Z"/><polyline class="cls-4" points="626.42 178.69 615.09 167.36 626.42 156.03"/><polyline class="cls-4" points="614.85 190.18 626.18 201.51 614.85 212.84"/><circle class="cls-4" cx="649.03" cy="189.98" r="8.01"/><path class="cls-4" d="M592.18,167.71l-13.69,13.6,11.11.2.16,11.11,13.79-13.71-11.27-11.3Z"/><polyline class="cls-4" points="725.32 369.02 713.99 357.69 725.32 346.36"/><polyline class="cls-4" points="713.75 380.51 725.08 391.84 713.75 403.17"/><circle class="cls-4" cx="747.93" cy="380.31" r="8.01"/><path class="cls-4" d="M691.08,358l-13.69,13.61,11.11.19.16,11.12,13.79-13.71-11.27-11.31Z"/><polyline class="cls-4" points="677.12 320.81 665.79 309.49 677.12 298.16"/><polyline class="cls-4" points="665.55 332.3 676.88 343.63 665.55 354.96"/><circle class="cls-4" cx="699.73" cy="332.1" r="8.01"/><path class="cls-4" d="M642.87,309.83l-13.68,13.6,11.11.2.16,11.11L654.24,321,643,309.73Z"/><polyline class="cls-4" points="628.91 272.61 617.58 261.28 628.91 249.95"/><polyline class="cls-4" points="617.34 284.1 628.67 295.43 617.34 306.76"/><circle class="cls-4" cx="651.52" cy="283.9" r="8.01"/><path class="cls-4" d="M594.67,261.62,581,275.23l11.11.2.16,11.11L606,272.83l-11.27-11.31Z"/><polyline class="cls-4" points="580.71 224.41 569.38 213.08 580.71 201.75"/><polyline class="cls-4" points="569.14 235.9 580.47 247.22 569.14 258.55"/><circle class="cls-4" cx="603.32" cy="235.7" r="8.01"/><path class="cls-4" d="M546.46,213.42,532.78,227l11.11.19.16,11.11,13.78-13.7-11.27-11.31Z"/><polyline class="cls-4" points="679.61 414.73 668.28 403.4 679.61 392.07"/><polyline class="cls-4" points="668.04 426.22 679.37 437.55 668.04 448.88"/><circle class="cls-4" cx="702.22" cy="426.02" r="8.01"/><path class="cls-4" d="M645.36,403.74l-13.68,13.61,11.11.2.16,11.11L656.73,415l-11.27-11.3Z"/><polyline class="cls-4" points="631.4 366.53 620.07 355.2 631.4 343.87"/><polyline class="cls-4" points="619.84 378.02 631.16 389.35 619.84 400.67"/><circle class="cls-4" cx="654.01" cy="377.82" r="8.01"/><path class="cls-4" d="M597.16,355.54l-13.69,13.61,11.12.19.15,11.12,13.79-13.71-11.27-11.31Z"/><polyline class="cls-4" points="583.2 318.32 571.87 306.99 583.2 295.67"/><polyline class="cls-4" points="571.63 329.81 582.96 341.14 571.63 352.47"/><circle class="cls-4" cx="605.81" cy="329.61" r="8.01"/><path class="cls-4" d="M549,307.34l-13.69,13.6,11.11.2.16,11.11,13.79-13.71-11.27-11.3Z"/><polyline class="cls-4" points="534.99 270.12 523.66 258.79 534.99 247.46"/><polyline class="cls-4" points="523.43 281.61 534.75 292.94 523.43 304.26"/><circle class="cls-4" cx="557.61" cy="281.41" r="8.01"/><path class="cls-4" d="M500.75,259.13l-13.69,13.61,11.12.19.15,11.12,13.79-13.71L500.85,259Z"/><polyline class="cls-4" points="633.89 460.44 622.57 449.12 633.89 437.79"/><polyline class="cls-4" points="622.33 471.93 633.65 483.26 622.33 494.59"/><circle class="cls-4" cx="656.51" cy="471.73" r="8.01"/><path class="cls-4" d="M599.65,449.46,586,463.06l11.12.2.15,11.11L611,460.67l-11.27-11.31Z"/><polyline class="cls-4" points="585.69 412.24 574.36 400.91 585.69 389.58"/><polyline class="cls-4" points="574.12 423.73 585.45 435.06 574.12 446.39"/><circle class="cls-4" cx="608.3" cy="423.53" r="8.01"/><path class="cls-4" d="M551.45,401.25l-13.69,13.61,11.11.2.16,11.11,13.79-13.71-11.27-11.31Z"/><polyline class="cls-4" points="537.48 364.04 526.16 352.71 537.48 341.38"/><polyline class="cls-4" points="525.92 375.52 537.25 386.85 525.92 398.18"/><circle class="cls-4" cx="560.1" cy="375.33" r="8.01"/><path class="cls-4" d="M503.24,353.05l-13.68,13.61,11.11.19.16,11.11,13.78-13.7L503.34,353Z"/><polyline class="cls-4" points="489.28 315.83 477.95 304.5 489.28 293.17"/><polyline class="cls-4" points="477.71 327.32 489.04 338.65 477.71 349.98"/><circle class="cls-4" cx="511.89" cy="327.12" r="8.01"/><path class="cls-4" d="M455,304.84l-13.69,13.61,11.11.2.16,11.11,13.79-13.71-11.27-11.3Z"/><path class="cls-4" d="M827.87,312l-13.68,13.61,11.11.2.16,11.11,13.78-13.71L828,311.87Z"/><path class="cls-4" d="M830.36,405.89,816.68,419.5l11.11.19.16,11.12,13.78-13.71-11.27-11.31Z"/><polyline class="cls-4" points="816.4 368.67 805.07 357.35 816.4 346.02"/><polyline class="cls-4" points="804.84 380.16 816.16 391.49 804.84 402.82"/><path class="cls-4" d="M782.16,357.69l-13.69,13.6,11.11.2.16,11.11,13.79-13.7-11.27-11.31Z"/><polyline class="cls-4" points="818.89 462.59 807.56 451.26 818.89 439.93"/><polyline class="cls-4" points="807.33 474.08 818.65 485.41 807.33 496.74"/><path class="cls-4" d="M784.65,451.61,771,465.21l11.12.2.15,11.11L796,462.81l-11.27-11.3Z"/><polyline class="cls-4" points="770.69 414.39 759.36 403.06 770.69 391.73"/><polyline class="cls-4" points="759.12 425.88 770.45 437.2 759.12 448.53"/><circle class="cls-4" cx="793.3" cy="425.68" r="8.01"/><path class="cls-4" d="M736.45,403.4,722.76,417l11.11.19.16,11.12,13.79-13.71L736.55,403.3Z"/><polyline class="cls-4" points="821.38 556.51 810.05 545.18 821.38 533.85"/><polyline class="cls-4" points="809.82 568 821.15 579.33 809.82 590.65"/><path class="cls-4" d="M787.14,545.52l-13.68,13.61,11.11.2.16,11.11,13.78-13.71-11.27-11.31Z"/><polyline class="cls-4" points="773.18 508.3 761.85 496.98 773.18 485.65"/><polyline class="cls-4" points="761.61 519.79 772.94 531.12 761.61 542.45"/><circle class="cls-4" cx="795.79" cy="519.59" r="8.01"/><path class="cls-4" d="M738.94,497.32l-13.69,13.6,11.11.2.16,11.11,13.79-13.7L739,497.22Z"/><polyline class="cls-4" points="724.98 460.1 713.65 448.77 724.98 437.44"/><polyline class="cls-4" points="713.41 471.59 724.74 482.92 713.41 494.25"/><circle class="cls-4" cx="747.59" cy="471.39" r="8.01"/><path class="cls-4" d="M690.73,449.11l-13.68,13.61,11.11.2.16,11.11,13.78-13.71L690.83,449Z"/><polyline class="cls-4" points="775.67 602.22 764.34 590.89 775.67 579.57"/><polyline class="cls-4" points="764.1 613.71 775.43 625.04 764.1 636.37"/><circle class="cls-4" cx="798.28" cy="613.51" r="8.01"/><path class="cls-4" d="M741.43,591.24l-13.69,13.6,11.11.2.16,11.11,13.79-13.71-11.27-11.3Z"/><polyline class="cls-4" points="727.47 554.02 716.14 542.69 727.47 531.36"/><polyline class="cls-4" points="715.9 565.51 727.23 576.84 715.9 588.16"/><circle class="cls-4" cx="750.08" cy="565.31" r="8.01"/><path class="cls-4" d="M693.22,543l-13.68,13.61,11.11.19.16,11.12,13.78-13.71-11.27-11.31Z"/><polyline class="cls-4" points="679.26 505.81 667.93 494.49 679.26 483.16"/><polyline class="cls-4" points="667.7 517.3 679.02 528.63 667.7 539.96"/><circle class="cls-4" cx="701.87" cy="517.1" r="8.01"/><path class="cls-4" d="M645,494.83l-13.69,13.6,11.12.2.15,11.11L656.39,506l-11.27-11.3Z"/><polyline class="cls-4" points="208.22 126.19 196.89 114.86 208.22 103.54"/><polyline class="cls-4" points="196.65 137.68 207.98 149.01 196.65 160.34"/><circle class="cls-4" cx="230.83" cy="137.48" r="8.01"/><path class="cls-4" d="M174,115.21l-13.68,13.6,11.11.2.16,11.11,13.78-13.7-11.27-11.31Z"/><polyline class="cls-4" points="160.01 77.99 148.68 66.66 160.01 55.33"/><polyline class="cls-4" points="148.44 89.48 159.77 100.81 148.44 112.14"/><circle class="cls-4" cx="182.62" cy="89.28" r="8.01"/><path class="cls-4" d="M125.77,67,112.08,80.61l11.11.2.16,11.11,13.79-13.71L125.87,66.9Z"/><polyline class="cls-4" points="111.81 29.79 100.48 18.46 111.81 7.13"/><polyline class="cls-4" points="100.24 41.27 111.57 52.6 100.24 63.93"/><circle class="cls-4" cx="134.42" cy="41.07" r="8.01"/><path class="cls-4" d="M77.57,18.8,63.88,32.41,75,32.6l.16,11.11L88.93,30,77.67,18.7Z"/><polyline class="cls-4" points="52.04 -6.93 63.37 4.4 52.04 15.73"/><circle class="cls-4" cx="86.22" cy="-7.13" r="8.01"/><polyline class="cls-4" points="162.5 171.91 151.17 160.58 162.5 149.25"/><polyline class="cls-4" points="150.94 183.4 162.26 194.72 150.94 206.05"/><circle class="cls-4" cx="185.12" cy="183.2" r="8.01"/><path class="cls-4" d="M128.26,160.92l-13.69,13.61,11.12.19.15,11.11,13.79-13.7-11.27-11.31Z"/><polyline class="cls-4" points="114.3 123.7 102.97 112.37 114.3 101.05"/><polyline class="cls-4" points="102.73 135.19 114.06 146.52 102.73 157.85"/><circle class="cls-4" cx="136.91" cy="134.99" r="8.01"/><path class="cls-4" d="M80.06,112.72l-13.69,13.6,11.11.2.16,11.11,13.79-13.71-11.27-11.3Z"/><polyline class="cls-4" points="66.09 75.5 54.77 64.17 66.09 52.84"/><polyline class="cls-4" points="54.53 86.99 65.86 98.32 54.53 109.64"/><circle class="cls-4" cx="88.71" cy="86.79" r="8.01"/><path class="cls-4" d="M31.85,64.51,18.17,78.12l11.11.19.16,11.12L43.22,75.72,32,64.41Z"/><polyline class="cls-4" points="17.89 27.29 6.56 15.96 17.89 4.64"/><polyline class="cls-4" points="6.32 38.78 17.65 50.11 6.32 61.44"/><circle class="cls-4" cx="40.5" cy="38.58" r="8.01"/><polyline class="cls-4" points="116.79 217.62 105.46 206.29 116.79 194.96"/><polyline class="cls-4" points="105.22 229.11 116.55 240.44 105.22 251.77"/><circle class="cls-4" cx="139.4" cy="228.91" r="8.01"/><path class="cls-4" d="M82.55,206.63,68.86,220.24l11.11.2.16,11.11,13.79-13.71L82.65,206.53Z"/><polyline class="cls-4" points="68.58 169.41 57.26 158.09 68.58 146.76"/><polyline class="cls-4" points="57.02 180.91 68.35 192.23 57.02 203.56"/><circle class="cls-4" cx="91.2" cy="180.71" r="8.01"/><path class="cls-4" d="M34.34,158.43,20.66,172l11.11.19.16,11.11,13.78-13.7L34.44,158.33Z"/><polyline class="cls-4" points="20.38 121.21 9.05 109.88 20.38 98.55"/><polyline class="cls-4" points="8.81 132.7 20.14 144.03 8.81 155.36"/><circle class="cls-4" cx="42.99" cy="132.5" r="8.01"/><circle class="cls-4" cx="-5.21" cy="84.3" r="8.01"/><polyline class="cls-4" points="71.08 263.33 59.75 252 71.08 240.68"/><polyline class="cls-4" points="59.51 274.82 70.84 286.15 59.51 297.48"/><circle class="cls-4" cx="93.69" cy="274.62" r="8.01"/><path class="cls-4" d="M36.84,252.35,23.15,266l11.11.2.16,11.11L48.2,263.55l-11.27-11.3Z"/><polyline class="cls-4" points="22.87 215.13 11.54 203.8 22.87 192.47"/><polyline class="cls-4" points="11.31 226.62 22.63 237.95 11.31 249.28"/><circle class="cls-4" cx="45.48" cy="226.42" r="8.01"/><circle class="cls-4" cx="-2.72" cy="178.21" r="8.01"/><polyline class="cls-4" points="25.36 309.05 14.04 297.72 25.36 286.39"/><polyline class="cls-4" points="13.8 320.54 25.13 331.86 13.8 343.19"/><circle class="cls-4" cx="47.98" cy="320.34" r="8.01"/><path class="cls-4" d="M-8.88,298.06l-13.68,13.61,11.11.19L-11.3,323l13.79-13.7L-8.78,298Z"/><circle class="cls-4" cx="-0.23" cy="272.13" r="8.01"/><circle class="cls-4" cx="2.26" cy="366.05" r="8.01"/><polyline class="cls-4" points="398.2 316.18 386.87 304.85 398.2 293.52"/><polyline class="cls-4" points="386.63 327.67 397.96 338.99 386.63 350.32"/><circle class="cls-4" cx="420.81" cy="327.47" r="8.01"/><path class="cls-4" d="M364,305.19,350.27,318.8l11.11.19.16,11.11,13.79-13.7-11.27-11.31Z"/><polyline class="cls-4" points="349.99 267.97 338.67 256.64 349.99 245.31"/><polyline class="cls-4" points="338.43 279.46 349.76 290.79 338.43 302.12"/><circle class="cls-4" cx="372.61" cy="279.26" r="8.01"/><path class="cls-4" d="M315.75,257l-13.68,13.61,11.11.2.15,11.11,13.79-13.71-11.27-11.3Z"/><polyline class="cls-4" points="301.79 219.77 290.46 208.44 301.79 197.11"/><polyline class="cls-4" points="290.22 231.26 301.55 242.59 290.22 253.91"/><circle class="cls-4" cx="324.4" cy="231.06" r="8.01"/><path class="cls-4" d="M267.55,208.78l-13.69,13.61,11.11.19.16,11.11L278.92,220l-11.27-11.31Z"/><polyline class="cls-4" points="253.59 171.56 242.26 160.23 253.59 148.91"/><polyline class="cls-4" points="242.02 183.05 253.35 194.38 242.02 205.71"/><circle class="cls-4" cx="276.2" cy="182.85" r="8.01"/><path class="cls-4" d="M219.34,160.58l-13.68,13.6,11.11.2.16,11.11,13.78-13.71-11.27-11.3Z"/><polyline class="cls-4" points="352.49 361.89 341.16 350.56 352.49 339.23"/><polyline class="cls-4" points="340.92 373.38 352.25 384.71 340.92 396.04"/><circle class="cls-4" cx="375.1" cy="373.18" r="8.01"/><path class="cls-4" d="M318.24,350.9l-13.68,13.61,11.11.19.16,11.12,13.78-13.71L318.34,350.8Z"/><polyline class="cls-4" points="304.28 313.68 292.95 302.36 304.28 291.03"/><polyline class="cls-4" points="292.71 325.17 304.04 336.5 292.71 347.83"/><circle class="cls-4" cx="326.89" cy="324.97" r="8.01"/><path class="cls-4" d="M270,302.7l-13.69,13.6,11.11.2.16,11.11,13.79-13.7L270.14,302.6Z"/><polyline class="cls-4" points="256.08 265.48 244.75 254.15 256.08 242.82"/><polyline class="cls-4" points="244.51 276.97 255.84 288.3 244.51 299.63"/><circle class="cls-4" cx="278.69" cy="276.77" r="8.01"/><path class="cls-4" d="M221.83,254.49,208.15,268.1l11.11.2.16,11.11L233.2,265.7l-11.27-11.31Z"/><polyline class="cls-4" points="207.87 217.28 196.54 205.95 207.87 194.62"/><polyline class="cls-4" points="196.31 228.76 207.63 240.09 196.31 251.42"/><circle class="cls-4" cx="230.48" cy="228.57" r="8.01"/><path class="cls-4" d="M173.63,206.29,159.94,219.9l11.12.19.15,11.11L185,217.5l-11.27-11.31Z"/><polyline class="cls-4" points="306.77 407.6 295.44 396.27 306.77 384.94"/><polyline class="cls-4" points="295.2 419.09 306.53 430.42 295.2 441.75"/><circle class="cls-4" cx="329.38" cy="418.89" r="8.01"/><path class="cls-4" d="M272.53,396.62l-13.69,13.6,11.12.2.15,11.11,13.79-13.71-11.27-11.3Z"/><polyline class="cls-4" points="258.57 359.4 247.24 348.07 258.57 336.74"/><polyline class="cls-4" points="247 370.89 258.33 382.21 247 393.54"/><circle class="cls-4" cx="281.18" cy="370.69" r="8.01"/><path class="cls-4" d="M224.33,348.41,210.64,362l11.11.19.16,11.12,13.79-13.71-11.27-11.31Z"/><polyline class="cls-4" points="210.36 311.19 199.03 299.86 210.36 288.54"/><polyline class="cls-4" points="198.8 322.68 210.13 334.01 198.8 345.34"/><circle class="cls-4" cx="232.98" cy="322.48" r="8.01"/><path class="cls-4" d="M176.12,300.21l-13.69,13.6,11.12.2.15,11.11,13.79-13.71-11.27-11.3Z"/><polyline class="cls-4" points="162.16 262.99 150.83 251.66 162.16 240.33"/><polyline class="cls-4" points="150.59 274.48 161.92 285.81 150.59 297.13"/><circle class="cls-4" cx="184.77" cy="274.28" r="8.01"/><path class="cls-4" d="M127.92,252l-13.69,13.61,11.11.19.16,11.12,13.79-13.71L128,251.9Z"/><polyline class="cls-4" points="261.06 453.31 249.73 441.99 261.06 430.66"/><polyline class="cls-4" points="249.49 464.8 260.82 476.13 249.49 487.46"/><circle class="cls-4" cx="283.67" cy="464.6" r="8.01"/><path class="cls-4" d="M226.82,442.33l-13.69,13.61,11.11.19.16,11.11,13.79-13.7-11.27-11.31Z"/><polyline class="cls-4" points="212.85 405.11 201.53 393.78 212.85 382.45"/><polyline class="cls-4" points="201.29 416.6 212.62 427.93 201.29 439.26"/><circle class="cls-4" cx="235.47" cy="416.4" r="8.01"/><path class="cls-4" d="M178.61,394.12l-13.68,13.61,11.11.2L176.2,419,190,405.33,178.71,394Z"/><polyline class="cls-4" points="164.65 356.91 153.32 345.58 164.65 334.25"/><polyline class="cls-4" points="153.08 368.39 164.41 379.72 153.08 391.05"/><circle class="cls-4" cx="187.26" cy="368.2" r="8.01"/><path class="cls-4" d="M130.41,345.92l-13.69,13.61,11.11.19.16,11.11,13.79-13.7-11.27-11.31Z"/><polyline class="cls-4" points="116.45 308.7 105.12 297.37 116.45 286.04"/><polyline class="cls-4" points="104.88 320.19 116.21 331.52 104.88 342.85"/><circle class="cls-4" cx="139.06" cy="319.99" r="8.01"/><path class="cls-4" d="M82.2,297.72l-13.68,13.6,11.11.2.16,11.11,13.78-13.71L82.3,297.62Z"/><polyline class="cls-4" points="215.35 499.03 204.02 487.7 215.35 476.37"/><polyline class="cls-4" points="203.78 510.52 215.11 521.85 203.78 533.17"/><circle class="cls-4" cx="237.96" cy="510.32" r="8.01"/><path class="cls-4" d="M181.1,488l-13.68,13.61,11.11.19.16,11.12,13.78-13.71L181.2,487.94Z"/><polyline class="cls-4" points="167.14 450.82 155.81 439.5 167.14 428.17"/><polyline class="cls-4" points="155.57 462.31 166.9 473.64 155.57 484.97"/><circle class="cls-4" cx="189.75" cy="462.11" r="8.01"/><path class="cls-4" d="M132.9,439.84l-13.69,13.6,11.11.2.16,11.11,13.79-13.7L133,439.74Z"/><polyline class="cls-4" points="118.94 402.62 107.61 391.29 118.94 379.96"/><polyline class="cls-4" points="107.37 414.11 118.7 425.44 107.37 436.77"/><circle class="cls-4" cx="141.55" cy="413.91" r="8.01"/><path class="cls-4" d="M84.7,391.63,71,405.24l11.11.2.16,11.11,13.78-13.71L84.8,391.53Z"/><polyline class="cls-4" points="70.73 354.42 59.4 343.09 70.73 331.76"/><polyline class="cls-4" points="59.17 365.9 70.5 377.23 59.17 388.56"/><circle class="cls-4" cx="93.34" cy="365.7" r="8.01"/><path class="cls-4" d="M36.49,343.43,22.8,357l11.12.19.15,11.11,13.79-13.7L36.59,343.33Z"/><polyline class="cls-4" points="169.63 544.74 158.3 533.41 169.63 522.08"/><polyline class="cls-4" points="158.07 556.23 169.4 567.56 158.07 578.89"/><circle class="cls-4" cx="192.24" cy="556.03" r="8.01"/><path class="cls-4" d="M135.39,533.75,121.7,547.36l11.12.2.15,11.11L146.76,545l-11.27-11.31Z"/><polyline class="cls-4" points="121.43 496.54 110.1 485.21 121.43 473.88"/><polyline class="cls-4" points="109.86 508.03 121.19 519.36 109.86 530.68"/><circle class="cls-4" cx="144.04" cy="507.83" r="8.01"/><path class="cls-4" d="M87.19,485.55,73.5,499.16l11.11.19.16,11.11,13.79-13.7L87.29,485.45Z"/><polyline class="cls-4" points="73.22 448.33 61.9 437 73.22 425.68"/><polyline class="cls-4" points="61.66 459.82 72.99 471.15 61.66 482.48"/><circle class="cls-4" cx="95.84" cy="459.62" r="8.01"/><path class="cls-4" d="M39,437.35,25.3,451l11.11.2.16,11.11,13.78-13.71-11.27-11.3Z"/><polyline class="cls-4" points="25.02 400.13 13.69 388.8 25.02 377.47"/><polyline class="cls-4" points="13.45 411.62 24.78 422.95 13.45 434.27"/><circle class="cls-4" cx="47.63" cy="411.42" r="8.01"/><path class="cls-4" d="M-9.22,389.14l-13.69,13.61,11.11.19.16,11.12L2.15,400.35-9.12,389Z"/><polyline class="cls-4" points="123.92 590.45 112.59 579.13 123.92 567.8"/><polyline class="cls-4" points="112.35 601.94 123.68 613.27 112.35 624.6"/><circle class="cls-4" cx="146.53" cy="601.74" r="8.01"/><path class="cls-4" d="M89.68,579.47,76,593.07l11.11.2.16,11.11,13.79-13.7L89.78,579.37Z"/><polyline class="cls-4" points="75.72 542.25 64.39 530.92 75.72 519.59"/><polyline class="cls-4" points="64.15 553.74 75.48 565.07 64.15 576.4"/><circle class="cls-4" cx="98.33" cy="553.54" r="8.01"/><path class="cls-4" d="M41.47,531.26,27.79,544.87l11.11.2.16,11.11,13.78-13.71L41.57,531.16Z"/><polyline class="cls-4" points="27.51 494.05 16.18 482.72 27.51 471.39"/><polyline class="cls-4" points="15.94 505.54 27.27 516.86 15.94 528.19"/><circle class="cls-4" cx="50.12" cy="505.34" r="8.01"/><path class="cls-4" d="M-6.73,483.06l-13.69,13.61,11.11.19L-9.15,508l13.79-13.7L-6.63,483Z"/><circle class="cls-4" cx="1.92" cy="457.13" r="8.01"/><polyline class="cls-4" points="78.21 636.17 66.88 624.84 78.21 613.51"/><polyline class="cls-4" points="30 587.96 18.67 576.63 30 565.31"/><polyline class="cls-4" points="18.44 599.45 29.76 610.78 18.44 622.11"/><circle class="cls-4" cx="52.61" cy="599.25" r="8.01"/><path class="cls-4" d="M-4.24,577l-13.69,13.6,11.12.2.15,11.11L7.13,588.18l-11.27-11.3Z"/><circle class="cls-4" cx="4.41" cy="551.05" r="8.01"/><polyline class="cls-4" points="588.18 506.16 576.85 494.83 588.18 483.5"/><polyline class="cls-4" points="576.61 517.65 587.94 528.98 576.61 540.3"/><circle class="cls-4" cx="610.79" cy="517.45" r="8.01"/><path class="cls-4" d="M553.94,495.17l-13.69,13.61,11.11.19.16,11.12,13.79-13.71L554,495.07Z"/><polyline class="cls-4" points="539.98 457.95 528.65 446.62 539.98 435.3"/><polyline class="cls-4" points="528.41 469.44 539.74 480.77 528.41 492.1"/><circle class="cls-4" cx="562.59" cy="469.24" r="8.01"/><path class="cls-4" d="M505.73,447l-13.68,13.6,11.11.2.16,11.11,13.78-13.71-11.27-11.3Z"/><polyline class="cls-4" points="491.77 409.75 480.44 398.42 491.77 387.09"/><polyline class="cls-4" points="480.2 421.24 491.53 432.57 480.2 443.89"/><circle class="cls-4" cx="514.38" cy="421.04" r="8.01"/><path class="cls-4" d="M457.53,398.76l-13.69,13.61,11.11.19.16,11.12L468.9,410l-11.27-11.31Z"/><polyline class="cls-4" points="443.57 361.54 432.24 350.22 443.57 338.89"/><polyline class="cls-4" points="432 373.03 443.33 384.36 432 395.69"/><circle class="cls-4" cx="466.18" cy="372.83" r="8.01"/><path class="cls-4" d="M409.33,350.56l-13.69,13.6,11.11.2.16,11.11,13.78-13.7-11.26-11.31Z"/><polyline class="cls-4" points="542.47 551.87 531.14 540.54 542.47 529.21"/><polyline class="cls-4" points="530.9 563.36 542.23 574.69 530.9 586.02"/><circle class="cls-4" cx="565.08" cy="563.16" r="8.01"/><path class="cls-4" d="M508.23,540.88l-13.69,13.61,11.11.2.16,11.11,13.78-13.71-11.26-11.31Z"/><polyline class="cls-4" points="494.26 503.67 482.93 492.34 494.26 481.01"/><polyline class="cls-4" points="482.7 515.16 494.02 526.48 482.7 537.81"/><circle class="cls-4" cx="516.87" cy="514.96" r="8.01"/><path class="cls-4" d="M460,492.68l-13.69,13.61,11.12.19.15,11.11,13.79-13.7-11.27-11.31Z"/><polyline class="cls-4" points="446.06 455.46 434.73 444.13 446.06 432.81"/><polyline class="cls-4" points="434.49 466.95 445.82 478.28 434.49 489.61"/><circle class="cls-4" cx="468.67" cy="466.75" r="8.01"/><path class="cls-4" d="M411.82,444.48l-13.69,13.6,11.11.2.16,11.11,13.79-13.71-11.27-11.3Z"/><polyline class="cls-4" points="397.85 407.26 386.52 395.93 397.85 384.6"/><polyline class="cls-4" points="386.29 418.75 397.62 430.07 386.29 441.4"/><circle class="cls-4" cx="420.47" cy="418.55" r="8.01"/><path class="cls-4" d="M363.61,396.27l-13.68,13.61,11.11.19.16,11.12L375,407.48l-11.27-11.31Z"/><polyline class="cls-4" points="496.75 597.58 485.43 586.25 496.75 574.93"/><polyline class="cls-4" points="485.19 609.07 496.52 620.4 485.19 631.73"/><circle class="cls-4" cx="519.37" cy="608.87" r="8.01"/><path class="cls-4" d="M462.51,586.6l-13.68,13.6,11.11.2.16,11.11,13.78-13.7L462.61,586.5Z"/><polyline class="cls-4" points="448.55 549.38 437.22 538.05 448.55 526.72"/><polyline class="cls-4" points="436.98 560.87 448.31 572.2 436.98 583.53"/><circle class="cls-4" cx="471.16" cy="560.67" r="8.01"/><path class="cls-4" d="M414.31,538.39,400.62,552l11.11.2.16,11.11,13.79-13.71-11.27-11.31Z"/><polyline class="cls-4" points="400.35 501.18 389.02 489.85 400.35 478.52"/><polyline class="cls-4" points="388.78 512.66 400.11 523.99 388.78 535.32"/><circle class="cls-4" cx="422.96" cy="512.46" r="8.01"/><path class="cls-4" d="M366.1,490.19,352.42,503.8l11.11.19.16,11.11,13.78-13.7L366.2,490.09Z"/><polyline class="cls-4" points="352.14 452.97 340.81 441.64 352.14 430.31"/><polyline class="cls-4" points="340.57 464.46 351.9 475.79 340.57 487.12"/><circle class="cls-4" cx="374.75" cy="464.26" r="8.01"/><path class="cls-4" d="M317.9,442l-13.69,13.61,11.11.2.16,11.11,13.79-13.71L318,441.88Z"/><polyline class="cls-4" points="402.84 595.09 391.51 583.76 402.84 572.43"/><polyline class="cls-4" points="391.27 606.58 402.6 617.91 391.27 629.24"/><circle class="cls-4" cx="425.45" cy="606.38" r="8.01"/><path class="cls-4" d="M368.59,584.11l-13.68,13.6,11.11.2.16,11.11L380,595.31,368.69,584Z"/><polyline class="cls-4" points="354.63 546.89 343.3 535.56 354.63 524.23"/><polyline class="cls-4" points="343.07 558.38 354.39 569.71 343.07 581.03"/><circle class="cls-4" cx="377.24" cy="558.18" r="8.01"/><path class="cls-4" d="M320.39,535.9,306.7,549.51l11.12.19.15,11.12,13.79-13.71L320.49,535.8Z"/><polyline class="cls-4" points="306.43 498.68 295.1 487.36 306.43 476.03"/><polyline class="cls-4" points="294.86 510.17 306.19 521.5 294.86 532.83"/><circle class="cls-4" cx="329.04" cy="509.97" r="8.01"/><path class="cls-4" d="M272.19,487.7,258.5,501.3l11.11.2.16,11.11,13.79-13.7L272.29,487.6Z"/><polyline class="cls-4" points="308.92 592.6 297.59 581.27 308.92 569.94"/><polyline class="cls-4" points="297.35 604.09 308.68 615.42 297.35 626.75"/><circle class="cls-4" cx="331.53" cy="603.89" r="8.01"/><path class="cls-4" d="M274.68,581.61,261,595.22l11.11.2.16,11.11,13.79-13.71-11.27-11.3Z"/><polyline class="cls-4" points="260.71 544.4 249.39 533.07 260.71 521.74"/><polyline class="cls-4" points="249.15 555.89 260.48 567.22 249.15 578.54"/><circle class="cls-4" cx="283.33" cy="555.69" r="8.01"/><path class="cls-4" d="M226.47,533.41,212.79,547l11.11.19.16,11.11,13.78-13.7-11.27-11.31Z"/><polyline class="cls-4" points="215 590.11 203.67 578.78 215 567.45"/><polyline class="cls-4" points="203.44 601.6 214.76 612.93 203.44 624.26"/><circle class="cls-4" cx="237.61" cy="601.4" r="8.01"/><path class="cls-4" d="M180.76,579.12l-13.69,13.61,11.11.2.16,11.11,13.79-13.71L180.86,579Z"/><polyline class="cls-4" points="169.29 635.82 157.96 624.49 169.29 613.17"/><polyline class="cls-4" points="681.75 599.73 670.42 588.4 681.75 577.07"/><polyline class="cls-4" points="670.19 611.22 681.51 622.55 670.19 633.88"/><circle class="cls-4" cx="704.37" cy="611.02" r="8.01"/><path class="cls-4" d="M647.51,588.74l-13.68,13.61,11.11.2.15,11.11L658.88,600l-11.27-11.31Z"/><polyline class="cls-4" points="633.55 551.53 622.22 540.2 633.55 528.87"/><polyline class="cls-4" points="621.98 563.02 633.31 574.34 621.98 585.67"/><circle class="cls-4" cx="656.16" cy="562.82" r="8.01"/><path class="cls-4" d="M599.31,540.54l-13.69,13.61,11.11.19.16,11.11,13.79-13.7-11.27-11.31Z"/><polyline class="cls-4" points="587.84 597.24 576.51 585.91 587.84 574.58"/><polyline class="cls-4" points="576.27 608.73 587.6 620.06 576.27 631.39"/><circle class="cls-4" cx="610.45" cy="608.53" r="8.01"/><path class="cls-4" d="M553.59,586.25l-13.68,13.61,11.11.2.16,11.11L565,597.46l-11.27-11.31Z"/></g></svg>